<svg width="28" height="28" viewBox="0 0 28 28" fill="none" xmlns="http://www.w3.org/2000/svg">
<g id="vuesax/bold/favorite-chart">
<g id="favorite-chart">
<path id="Vector" d="M22.1567 18.4459L22.1567 18.4459L22.1583 18.4491C22.3032 18.7389 22.5403 18.9858 22.7844 19.167C23.0283 19.3481 23.3298 19.5012 23.6404 19.5561L23.6403 19.5561L23.648 19.5574L24.1482 19.6388C24.8069 19.7497 25.016 20.0104 25.0642 20.1618C25.113 20.3153 25.0911 20.6518 24.6231 21.1253C24.6227 21.1256 24.6224 21.126 24.622 21.1263L24.1576 21.5908C23.9105 21.8378 23.7499 22.1668 23.6624 22.4813C23.5746 22.7972 23.5444 23.156 23.6141 23.4878C23.6142 23.488 23.6142 23.4882 23.6142 23.4884L23.6723 23.7672L23.6722 23.7673L23.6746 23.7779C23.8734 24.6501 23.6685 24.9579 23.5764 25.0253C23.4879 25.0902 23.1423 25.1927 22.3899 24.7376L22.0544 24.5293L22.0544 24.5293L22.0468 24.5247C21.7299 24.3346 21.3479 24.2579 21.0001 24.2579C20.6522 24.2579 20.2702 24.3346 19.9533 24.5247L19.9532 24.5247L19.9458 24.5293L19.611 24.7371C18.8509 25.1933 18.5066 25.0895 18.4201 25.026C18.3298 24.9595 18.1262 24.6526 18.3255 23.7779L18.3256 23.7779L18.3278 23.7672L18.3857 23.4891C18.4563 23.1604 18.4248 22.8009 18.3379 22.4866C18.2511 22.1726 18.0912 21.8394 17.8425 21.5908L17.3782 21.1264C16.9084 20.6456 16.8874 20.3093 16.9358 20.1579C16.9832 20.0092 17.1907 19.7501 17.8519 19.6388L18.3521 19.5574L18.3521 19.5574L18.357 19.5565C18.6742 19.5022 18.9772 19.3488 19.2218 19.1658C19.4667 18.9826 19.6985 18.7357 19.8418 18.4491L19.8418 18.4491L19.8434 18.4459L20.216 17.6891C20.2161 17.6889 20.2162 17.6887 20.2163 17.6884C20.5384 17.0396 20.8565 16.9195 21.0001 16.9195C21.1437 16.9195 21.4617 17.0395 21.7838 17.6884C21.7839 17.6886 21.784 17.6889 21.7841 17.6891L22.1567 18.4459Z" fill="#FEC536" stroke="#FEC536" stroke-width="1.16667"/>
<path id="Vector_2" d="M18.8884 2.33325H9.11171C4.86504 2.33325 2.33337 4.86492 2.33337 9.11159V18.8883C2.33337 23.1349 4.86504 25.6666 9.11171 25.6666H15.2717C15.68 25.6666 15.9717 25.2466 15.925 24.8383C15.8784 24.3949 15.9017 23.8699 16.0417 23.2633C16.065 23.1816 16.0417 23.0883 15.9717 23.0183L15.715 22.7616C14.7234 21.7583 14.3617 20.5449 14.7117 19.4366C15.0734 18.3399 16.0767 17.5699 17.465 17.3366L17.815 17.2783L18.13 16.6483C18.7717 15.3416 19.8217 14.5833 21 14.5833C22.1784 14.5833 23.2284 15.3416 23.87 16.6483L24.045 17.0099C24.1267 17.1849 24.29 17.3016 24.4767 17.3366C24.5817 17.3599 24.6867 17.3833 24.7917 17.4066C25.2 17.5116 25.6667 17.1849 25.6667 16.7533V9.11159C25.6667 4.86492 23.135 2.33325 18.8884 2.33325ZM18.97 10.4533L16.275 13.9299C15.9367 14.3616 15.4584 14.6416 14.91 14.6999C14.3734 14.7699 13.825 14.6183 13.405 14.2799L11.27 12.6233C11.1884 12.5533 11.095 12.5533 11.0484 12.5649C11.0017 12.5649 10.92 12.5883 10.85 12.6816L8.07337 16.2866C7.89837 16.5083 7.64171 16.6249 7.37337 16.6249C7.18671 16.6249 7.00004 16.5666 6.83671 16.4383C6.45171 16.1466 6.38171 15.5983 6.67337 15.2133L9.45004 11.6083C9.78837 11.1766 10.2667 10.8966 10.815 10.8266C11.3634 10.7566 11.9 10.9083 12.3317 11.2466L14.4667 12.9266C14.5484 12.9966 14.63 12.9849 14.6884 12.9849C14.735 12.9849 14.8167 12.9616 14.8867 12.8683L17.5817 9.39159C17.8734 9.00659 18.4217 8.93659 18.8067 9.23992C19.2034 9.53159 19.2617 10.0799 18.97 10.4533Z" fill="#FEC536"/>
</g>
</g>
</svg>
