<svg width="108" height="121" viewBox="0 0 108 121" fill="none" xmlns="http://www.w3.org/2000/svg">
<path d="M12.1756 15.2723V23.0986H25.5337V33.4128H12.1756V51.7991H0V4.95813H26.8976V15.2723H12.1756Z" fill="#6699CC"/>
<path d="M44.7277 51.799H33.4243V0.23999H44.7277V51.799Z" fill="#6699CC"/>
<path d="M62.3063 3.28388C63.5473 4.52486 64.1678 6.01754 64.1678 7.75608C64.1678 9.49461 63.5473 10.9873 62.3063 12.2283C61.0653 13.4692 59.5727 14.0897 57.8342 14.0897C56.0956 14.0897 54.6029 13.4692 53.3619 12.2283C52.121 10.9873 51.5005 9.49461 51.5005 7.75608C51.5005 6.01754 52.121 4.49559 53.3619 3.23705C54.6029 1.98437 56.0956 1.35217 57.8342 1.35217C59.5727 1.39315 61.0653 2.03706 62.3063 3.27803V3.28388ZM63.4888 120.24H52.1854V19.9317H63.4888V120.24Z" fill="#FEC536"/>
<path d="M81.8752 23.5375H81.9981C82.9522 22.0858 84.2342 20.9794 85.8498 20.2126C87.4654 19.4458 89.1396 19.0243 90.8839 18.9365H91.6274C96.3864 18.9365 100.262 20.6458 103.241 24.0643C106.221 27.4829 107.713 31.4692 107.713 36.0234C107.713 40.5775 106.232 44.5755 103.27 47.8887C100.308 51.2019 96.4684 52.8585 91.7444 52.8585H90.8137C89.1571 52.7356 87.5298 52.3492 85.9376 51.7112C84.3454 51.0672 82.9874 50.1073 81.8693 48.8253V67.7092H70.5659V19.9375H81.8693V23.5433L81.8752 23.5375ZM83.4264 30.9014C82.1444 32.3297 81.5005 34.0155 81.5005 35.9648C81.5005 37.9141 82.1444 39.6936 83.4264 41.0575C84.7083 42.4214 86.4879 43.1063 88.7708 43.1063C91.0537 43.1063 92.88 42.4214 94.1444 41.0458C95.4088 39.676 96.041 37.9668 96.041 35.9297C96.041 33.8926 95.4088 32.2829 94.1444 30.8429C92.88 29.4087 91.0888 28.6887 88.7708 28.6887C86.4937 28.7297 84.7142 29.4673 83.4264 30.8955V30.9014Z" fill="#6699CC"/>
<path d="M82.1971 120H70.8936V97.4518H67.2292V88.1327H70.8936V78.5679H82.1971V88.1327H88.5951V97.4518H82.1971V120Z" fill="#FEC536"/>
<path d="M37.2643 91.0354C38.8273 84.0168 34.4019 77.0627 27.3834 75.4997C20.3648 73.9368 13.3756 78.4032 11.8419 85.4275C11.0809 88.9163 11.7951 92.3817 13.5687 95.1797C14.9502 97.3573 15.758 99.8451 15.8751 102.421L16.0565 106.436L24.3863 108.286L26.1541 104.914C27.3775 102.585 29.2214 100.641 31.4517 99.248C34.3082 97.4627 36.4741 94.5768 37.2643 91.0295V91.0354Z" fill="#FEC536"/>
<path d="M21.2312 112.249L17.1688 111.348C16.0156 111.09 15.2254 110.025 15.3951 108.93L15.9805 104.692L25.1942 106.676L23.8654 110.809C23.561 111.874 22.3844 112.501 21.2371 112.249H21.2312Z" fill="#59595B"/>
<path d="M23.9648 108.309C21.3717 107.847 18.8195 107.145 16.2263 106.688C15.998 106.647 15.9395 106.987 16.1619 107.039C18.7141 107.695 21.3307 108.11 23.8829 108.766C24.1697 108.842 24.2634 108.362 23.9648 108.309Z" fill="#808183"/>
<path d="M23.7131 109.427C21.12 108.965 18.5678 108.263 15.9746 107.806C15.7463 107.765 15.6878 108.105 15.9102 108.157C18.4624 108.813 21.079 109.228 23.6312 109.884C23.918 109.96 24.0117 109.48 23.7131 109.427Z" fill="#808183"/>
<path d="M29.8595 69.2713C29.678 70.0908 28.5892 72.9357 28.0507 72.8186C27.5122 72.7016 27.7346 69.6576 27.9161 68.8381C28.0975 68.0186 28.6829 67.4508 29.2156 67.5737C29.7483 67.6967 30.0409 68.4518 29.8595 69.2713Z" fill="#FEC536"/>
<path d="M40.9698 76.489C40.2323 76.887 37.7796 78.7017 38.043 79.1875C38.3006 79.6734 41.1747 78.6431 41.9123 78.251C42.6498 77.8529 43.042 77.1388 42.7845 76.6588C42.5269 76.1729 41.7133 76.1027 40.9757 76.4949L40.9698 76.489Z" fill="#FEC536"/>
<path d="M42.7726 90.6724C41.9356 90.5963 38.9736 89.8704 39.0263 89.326C39.079 88.7758 42.1229 88.6119 42.9541 88.688C43.7912 88.7641 44.4234 89.2733 44.3766 89.8177C44.3239 90.368 43.6097 90.7485 42.7726 90.6724Z" fill="#FEC536"/>
<path d="M16.1151 69.9328C16.6478 70.5826 18.2166 73.1933 17.7893 73.5446C17.3619 73.8958 15.1024 71.847 14.5697 71.1972C14.0371 70.5475 13.9492 69.7397 14.3766 69.3885C14.8039 69.0372 15.5766 69.2831 16.1092 69.927L16.1151 69.9328Z" fill="#FEC536"/>
<path d="M7.29363 80.5749C8.08387 80.8558 11.0751 81.4588 11.2566 80.9436C11.4439 80.4285 8.75706 78.9885 7.96681 78.7017C7.17657 78.4207 6.38631 78.608 6.199 79.1231C6.01168 79.6383 6.50338 80.288 7.29363 80.5749Z" fill="#FEC536"/>
</svg>
