<svg width="25" height="26" viewBox="0 0 25 26" fill="none" xmlns="http://www.w3.org/2000/svg">
<path d="M12.7763 24.476C12.7763 24.476 5.57083 24.5553 5.01624 18.2565C4.74509 13.762 7.35372 12.5643 7.2088 8.25165C7.2047 8.12855 7.34552 8.05621 7.44378 8.13048C7.89939 8.47505 8.8569 9.32671 9.25223 10.6416C9.29636 10.7882 9.50746 10.7765 9.53592 10.626C9.91702 8.61104 11.4254 3.58151 17.1425 1.47792C17.2711 1.43066 17.3883 1.57196 17.3185 1.69011C16.707 2.72515 15.0709 5.82 16.1472 7.67921C16.9233 9.01987 17.2666 9.9276 17.4173 10.4438C17.458 10.583 17.654 10.5847 17.6976 10.4464L18.0063 9.46536C18.053 9.31706 18.268 9.3337 18.291 9.48742C18.7125 12.3027 20.2509 14.8386 20.1074 17.781C20.0212 19.547 19.4802 21.3493 18.1875 22.6123C16.7587 24.0082 14.7157 24.4594 12.7763 24.476Z" fill="#EC6E45"/>
<path d="M10.8747 15.81C10.9842 15.8966 11.1407 15.7967 11.1081 15.6609C10.3733 12.5934 12.2641 10.4101 13.0702 9.64395C13.1719 9.54714 13.3393 9.63491 13.3156 9.77344C13.0592 11.2781 13.7182 12.6909 14.8397 13.7402C15.7533 14.5949 15.7461 15.625 15.6824 16.0965C15.6667 16.213 15.788 16.2976 15.8938 16.246C16.5701 15.9164 17.0357 15.304 17.2605 14.9542C17.3267 14.8511 17.4816 14.8704 17.5221 14.986C18.4416 17.6135 18.8493 22.2916 12.932 22.2734C6.7623 22.2545 7.74923 17.7809 8.14528 16.5925C8.4186 15.7727 8.12635 15.179 7.91874 14.8897C7.85039 14.7944 7.91344 14.6631 8.03039 14.6564C9.15874 14.5907 10.3085 15.3625 10.8747 15.81Z" fill="#F8D462"/>
</svg>
