<svg width="92" height="120" viewBox="0 0 92 120" fill="none" xmlns="http://www.w3.org/2000/svg">
<path d="M54.9592 83.6155C54.9592 83.6155 63.0646 101.726 63.0646 109.832H56.8706C56.8706 104.591 51.1531 86.9507 47.235 83.6155H54.9648H54.9592Z" fill="#6699CC"/>
<path d="M54.9592 83.6155C54.9592 83.6155 63.0646 101.726 63.0646 109.832H56.8706C56.8706 104.591 51.1531 86.9507 47.235 83.6155H54.9648H54.9592Z" fill="#6699CC"/>
<path d="M54.3707 98.6547C52.3528 92.3038 49.4716 85.5493 47.2014 83.6155H54.9313C54.9313 83.6155 58.1712 90.852 60.5535 98.2287L54.3707 98.6547Z" fill="#6699CC"/>
<path d="M64.1857 107.337H56.1644C55.5422 107.337 55.0713 107.898 55.1834 108.515L57.0893 119.176C57.1734 119.652 57.5882 120 58.0702 120H69.6566C70.531 120 70.985 118.957 70.3852 118.318C69.4043 117.276 68.0983 116.071 67.0388 115.717C66.6857 115.6 66.4279 115.308 66.3606 114.944L65.1667 108.167C65.0826 107.691 64.6678 107.343 64.1857 107.343V107.337Z" fill="#237AC1"/>
<path d="M35.0153 83.0157C35.0153 83.0157 26.9099 101.127 26.9099 109.232H33.1038C33.1038 103.991 38.8213 86.3509 42.7395 83.0157H35.0097H35.0153Z" fill="#6699CC"/>
<path d="M35.0153 83.0157C35.0153 83.0157 26.9099 101.127 26.9099 109.232H33.1038C33.1038 103.991 38.8213 86.3509 42.7395 83.0157H35.0097H35.0153Z" fill="#6699CC"/>
<path d="M35.6039 98.0549C37.6218 91.704 40.503 84.9495 42.7731 83.0157H35.0434C35.0434 83.0157 31.8034 90.2522 29.4211 97.6289L35.6039 98.0549Z" fill="#237AC1"/>
<path d="M25.7889 106.732H33.8101C34.4323 106.732 34.9032 107.293 34.7911 107.909L32.8853 118.571C32.8012 119.047 32.3864 119.395 31.9044 119.395H20.318C19.4436 119.395 18.9895 118.352 19.5893 117.713C20.5702 116.67 21.8763 115.465 22.9358 115.112C23.2889 114.994 23.5467 114.703 23.614 114.339L24.8079 107.562C24.892 107.085 25.3068 106.738 25.7889 106.738V106.732Z" fill="#237AC1"/>
<path d="M18.8998 67.7354C17.9357 67.4327 16.4503 67.3598 14.9537 66.1547C14.3763 65.695 12.8236 64.4394 12.0613 62.7354C11.17 60.7399 11.5736 58.5818 12.2238 56.8834C12.8011 55.3867 13.8438 54.1255 15.105 53.1334C15.5814 52.7634 16.0579 52.2085 16.2653 51.4181C16.7474 49.5852 15.346 48.1334 15.2115 47.9988C14.9144 47.6962 14.6622 47.5448 13.6476 46.9955C12.1005 46.1603 10.133 46.4966 9.06242 47.8923C8.96152 48.0213 8.87184 48.1614 8.78776 48.3015C8.74852 48.3688 8.71486 48.4305 8.68683 48.4977C8.01418 49.871 8.45139 51.5358 9.65094 52.4944L9.94804 52.7354C9.06239 53.6154 7.90766 55 7.05565 56.945C6.49511 58.2287 5.62626 60.7511 5.99061 63.8733C6.01303 64.0471 6.0243 64.176 6.05233 64.3441C6.52879 66.945 8.30004 69.4787 11.2597 71.4125C17.3079 75.3587 18.8886 75.6278 18.8886 75.6278V67.7298L18.8998 67.7354Z" fill="#6699CC"/>
<path d="M11.2709 71.4181C17.3191 75.3643 18.8998 75.6334 18.8998 75.6334V67.7354C17.9357 67.4327 16.4503 67.3598 14.9536 66.1547L11.2709 71.4181Z" fill="#237AC1"/>
<path d="M69.6062 75.9697C70.4582 76.5191 71.4559 77.6177 73.3393 78.0045C74.0624 78.1558 76.0187 78.5594 77.818 78.0549C79.92 77.472 81.3326 75.7848 82.2238 74.204C83.0142 72.8027 83.3169 71.1996 83.2776 69.5964C83.2608 68.9966 83.3842 68.2735 83.8606 67.6065C84.9649 66.0706 86.9828 66.222 87.1678 66.2388C87.5882 66.2724 87.8685 66.3733 88.9335 66.8049C90.5647 67.4664 91.5568 69.1984 91.1588 70.9137C91.1196 71.0706 91.0748 71.2276 91.0131 71.3845C90.9851 71.4574 90.957 71.5247 90.929 71.5863C90.2956 72.9821 88.7317 73.6996 87.2351 73.3913L86.8595 73.3128C86.7474 74.5516 86.4167 76.3285 85.4581 78.2231C84.8303 79.4731 83.4346 81.7489 80.7945 83.4585C80.6488 83.5538 80.5423 83.6267 80.3909 83.7108C78.0815 85 74.9985 85.2522 71.6241 84.1984C64.7295 82.046 63.5131 81.0034 63.5131 81.0034L69.6006 75.9697H69.6062Z" fill="#6699CC"/>
<path d="M80.3965 83.7051C78.0871 84.9944 75.0042 85.2466 71.6297 84.1928C64.7351 82.0403 63.5187 80.9977 63.5187 80.9977L69.6062 75.9641C70.4582 76.5134 71.4559 77.6121 73.3393 77.9989C74.0624 78.1502 76.0187 78.5538 77.818 78.0493L80.3965 83.6995V83.7051Z" fill="#237AC1"/>
<path d="M62.9189 20.3812H25.8113C21.9973 20.3812 18.9054 23.473 18.9054 27.287V84.546C18.9054 88.3599 21.9973 91.4518 25.8113 91.4518H62.9189C66.7328 91.4518 69.8247 88.3599 69.8247 84.546V27.287C69.8247 23.473 66.7328 20.3812 62.9189 20.3812Z" fill="#6699CC"/>
<path d="M43.0142 28.5482C43.7726 28.5482 44.3875 27.9334 44.3875 27.1749C44.3875 26.4164 43.7726 25.8016 43.0142 25.8016C42.2557 25.8016 41.6409 26.4164 41.6409 27.1749C41.6409 27.9334 42.2557 28.5482 43.0142 28.5482Z" fill="#7FB3DD"/>
<path d="M62.0108 28.935C59.9256 29.1592 57.6331 29.3106 55.1555 29.3274C52.2967 29.3498 49.6678 29.1872 47.3192 28.935C47.2295 28.935 46.7417 28.9238 46.3494 28.5314C46.1027 28.2848 45.9458 27.9428 45.9458 27.5617C45.9458 26.805 46.5568 26.1884 47.3192 26.1884C49.6678 26.4406 52.2911 26.6032 55.1555 26.5807C57.6331 26.5639 59.9256 26.4126 62.0108 26.1884C62.1005 26.1884 62.5882 26.1996 62.9806 26.5919C63.2272 26.8386 63.3841 27.1805 63.3841 27.5617C63.3841 28.3184 62.7732 28.935 62.0108 28.935Z" fill="#7FB3DD"/>
<path d="M38.3506 54.7814C39.239 54.7814 39.9593 54.0611 39.9593 53.1726C39.9593 52.2842 39.239 51.5639 38.3506 51.5639C37.4621 51.5639 36.7418 52.2842 36.7418 53.1726C36.7418 54.0611 37.4621 54.7814 38.3506 54.7814Z" fill="#313743"/>
<path d="M52.8124 54.7814C53.7008 54.7814 54.4211 54.0611 54.4211 53.1726C54.4211 52.2842 53.7008 51.5639 52.8124 51.5639C51.9239 51.5639 51.2036 52.2842 51.2036 53.1726C51.2036 54.0611 51.9239 54.7814 52.8124 54.7814Z" fill="#313743"/>
<path d="M52.902 59.9551C54.2922 59.9551 55.2899 61.278 54.9199 62.6177C53.754 66.8442 49.8807 69.9551 45.2787 69.9551C40.6767 69.9551 36.8033 66.8498 35.6374 62.6177C35.2675 61.278 36.2709 59.9551 37.6554 59.9551C39.6117 60.4092 42.1397 60.8128 45.0937 60.824C48.2103 60.8408 50.8673 60.4204 52.8964 59.9551H52.902Z" fill="#313743"/>
<path d="M40.0041 47.1525C38.0871 47.0124 36.1308 47.3823 34.3931 48.2063C33.827 48.4754 33.244 48.8341 32.9974 49.4115C32.9189 49.5908 32.8852 49.8038 32.9637 49.9832C33.0702 50.213 33.3617 50.3139 33.614 50.2915C33.8662 50.2691 34.1016 50.1402 34.3315 50.028C35.7496 49.333 37.3415 48.9742 38.9222 49.0079C39.2866 49.0135 39.6622 49.0415 40.0153 48.9406C40.3685 48.8397 40.7048 48.5875 40.7777 48.2287C40.8505 47.87 40.6263 47.1973 40.0097 47.1525" fill="#313743"/>
<path d="M50.901 47.102C52.818 46.9619 54.7743 47.3318 56.512 48.1558C57.0781 48.4249 57.6611 48.7836 57.9077 49.361C57.9862 49.5404 58.0198 49.7534 57.9414 49.9327C57.8349 50.1626 57.5434 50.2634 57.2911 50.241C57.0389 50.2186 56.8035 50.0897 56.5737 49.9776C55.1555 49.2825 53.5636 48.9238 51.9828 48.9574C51.6185 48.963 51.243 48.991 50.8898 48.8901C50.5367 48.7892 50.2004 48.537 50.1275 48.1783C50.0546 47.8195 50.2788 47.1469 50.8954 47.102" fill="#313743"/>
<path d="M15.6767 11.8105C15.4861 12.8083 14.522 13.4641 13.5243 13.2735C12.5265 13.083 11.8707 12.1188 12.0613 11.1211C12.2518 10.1233 13.216 9.46748 14.2137 9.65807C15.2115 9.84865 15.8673 10.8128 15.6767 11.8105Z" fill="#313743"/>
<path d="M16.0536 2.46014L14.3263 11.5406L15.7085 11.8035L17.4357 2.72305L16.0536 2.46014Z" fill="#313743"/>
<path d="M22.0221 10.2971C21.8315 11.2949 20.8674 11.9507 19.8696 11.7601C18.8718 11.5695 18.216 10.6054 18.4066 9.60763C18.5972 8.60988 19.5614 7.95405 20.5591 8.14464C21.5569 8.33522 22.2127 9.29934 22.0221 10.2971Z" fill="#313743"/>
<path d="M22.4005 0.943781L20.6732 10.0242L22.0554 10.2871L23.7827 1.20669L22.4005 0.943781Z" fill="#313743"/>
<path d="M23.754 1.21638L15.7944 3.66592L16.0298 2.44956L23.9839 0L23.754 1.21638Z" fill="#313743"/>
<path d="M23.3168 3.50335L15.3628 5.95291L15.5926 4.73654L23.5466 2.28699L23.3168 3.50335Z" fill="#313743"/>
<path d="M8.13752 30.5774C7.82923 31.0538 7.1902 31.1827 6.71934 30.8745C6.24849 30.5662 6.11395 29.9271 6.42224 29.4563C6.73054 28.9798 7.36957 28.8509 7.84042 29.1592C8.31127 29.4675 8.44582 30.1065 8.13752 30.5774Z" fill="#313743"/>
<path d="M10.2945 25.8204L7.47607 30.1324L8.13296 30.5617L10.9514 26.2498L10.2945 25.8204Z" fill="#313743"/>
<path d="M11.7306 31.1491C11.4223 31.6256 10.7833 31.7545 10.3124 31.4462C9.83599 31.1379 9.70705 30.4989 10.0153 30.0281C10.3236 29.5516 10.9627 29.4227 11.4335 29.731C11.91 30.0393 12.0389 30.6783 11.7306 31.1491Z" fill="#313743"/>
<path d="M13.8554 26.3625L11.037 30.6744L11.6939 31.1038L14.5123 26.7919L13.8554 26.3625Z" fill="#313743"/>
<path d="M14.55 26.833L9.93115 26.4069L10.3067 25.8296L14.9256 26.2556L14.55 26.833Z" fill="#313743"/>
<path d="M13.8382 27.9204L9.21936 27.4944L9.59495 26.9171L14.2138 27.3431L13.8382 27.9204Z" fill="#313743"/>
<path d="M3.42338 23.6267C3.28324 24.361 2.577 24.8374 1.8483 24.6973C1.1196 24.5571 0.63752 23.8509 0.777654 23.1222C0.917789 22.3879 1.62403 21.9114 2.35273 22.0515C3.08704 22.1917 3.56351 22.898 3.42338 23.6267Z" fill="#313743"/>
<path d="M3.73996 16.772L2.47253 23.435L3.48575 23.6277L4.75318 16.9647L3.73996 16.772Z" fill="#313743"/>
<path d="M7.47293 15.703L7.10632 17.6304L8.11955 17.8231L8.48616 15.8958L7.47293 15.703Z" fill="#313743"/>
<path d="M8.40654 16.1435L3.50745 17.6458L3.68118 16.7545L8.57473 15.2523L8.40654 16.1435Z" fill="#313743"/>
<path d="M8.08703 17.8195L3.18787 19.3274L3.36167 18.4361L8.25515 16.9283L8.08703 17.8195Z" fill="#313743"/>
</svg>
